# xmcd
#
# Track frame offsets:
#	150
#	10644
#	26242
#	39094
#	51743
#	63737
#	74747
#	85206
#	98135
#	111223
#	126359
#	136244
#	148159
#	159829
#	171240
#	179699
#	197829
#
# Disc length: 2784 seconds
#
# Revision: 1
# Processed by: cddbd v1.5.2PL0 Copyright (c) Steve Scherf et al.
# Submitted via: audiograbber 1.83.01
#
DISCID=fe0ade11
DTITLE=Ernie Ashworth - Ernie Ashworth And Freinds
DYEAR=1999
DGENRE=Country
TTITLE0=Ernie Ashworth - Heartaches, Headaches And Hangovers
TTITLE1=Ernie Ashworth - Over압 Never Easy
TTITLE2=Ernie Ashworth - The Birthmark Henry Thompson Talks About
TTITLE3=Jay Lee Webb - I Wish
TTITLE4=Jay Lee Webb - Mili
TTITLE5=Little Roy Wiggins - Steel Guitar Rag
TTITLE6=Little Roy Wiggins - Steel Guitar Rag
TTITLE7=Little Roy Wiggins - There압 No Place I앇 Rather Be Tonight
TTITLE8=Little Roy Wiggins - There압 No Place I앇 Rather Be Tonight
TTITLE9=Little Roy Wiggins - Lucille
TTITLE10=Little Roy Wiggins - Give Me A Hundred Reason
TTITLE11=Little Roy Wiggins - The Beginning Of The Ending
TTITLE12=Little Roy Wiggins - I앐 Thankfull She압 Mine
TTITLE13=Little Roy Wiggins - Loving Til Morning
TTITLE14=Little Roy Wiggins - A New Heart
TTITLE15=Don Powell - Christmas Party
TTITLE16=Don Powell - Jesus Juice
EXTD=
EXTT0=
EXTT1=
EXTT2=
EXTT3=
EXTT4=
EXTT5=
EXTT6=
EXTT7=
EXTT8=
EXTT9=
EXTT10=
EXTT11=
EXTT12=
EXTT13=
EXTT14=
EXTT15=
EXTT16=
PLAYORDER=
